<svg xmlns="http://www.w3.org/2000/svg" xmlns:xlink="http://www.w3.org/1999/xlink" width="390" zoomAndPan="magnify" viewBox="0 0 292.5 91.5" height="122" preserveAspectRatio="xMidYMid meet" version="1.0"><defs><g/></defs><g fill="#ff5055" fill-opacity="0.302"><g transform="translate(61.658848, 65.240993)"><g><path d="M -3.46875 -3.9375 C -1.125 -9.132812 0.976562 -13.253906 2.84375 -16.296875 C 5.851562 -21.316406 8.988281 -25.753906 12.25 -29.609375 C 9.832031 -30.023438 7.660156 -30.234375 5.734375 -30.234375 L 8 -36.5 C 14.582031 -36.289062 20.3125 -35.429688 25.1875 -33.921875 C 27.007812 -33.359375 28.851562 -32.675781 30.71875 -31.875 L 34.8125 -22.671875 C 32.394531 -19.234375 29.300781 -16.257812 25.53125 -13.75 C 21.757812 -11.25 17.6875 -9.398438 13.3125 -8.203125 L 9.828125 -13.140625 C 7.097656 -8.554688 4.664062 -3.648438 2.53125 1.578125 Z M 10.625 -14.46875 C 18.019531 -17.019531 23.578125 -20.539062 27.296875 -25.03125 C 23.960938 -26.789062 19.492188 -28.226562 13.890625 -29.34375 L 18.40625 -25.609375 C 15.601562 -22.066406 13.007812 -18.351562 10.625 -14.46875 Z M 10.625 -14.46875 "/></g></g></g><g fill="#ff5055" fill-opacity="0.302"><g transform="translate(97.107567, 65.240993)"><g><path d="M 12.890625 -3.9375 C 10.679688 -1.832031 7.835938 -0.046875 4.359375 1.421875 L -2.625 -4.625 C -2.132812 -8.59375 -0.910156 -12.503906 1.046875 -16.359375 C 3.015625 -20.210938 5.539062 -24.226562 8.625 -28.40625 L 14.046875 -24.25 C 9.128906 -17.625 6.023438 -11.59375 4.734375 -6.15625 C 4.765625 -6.15625 5.085938 -6.25 5.703125 -6.4375 C 6.316406 -6.632812 7.113281 -7.015625 8.09375 -7.578125 C 10.582031 -8.972656 12.878906 -10.988281 14.984375 -13.625 C 17.441406 -18.601562 19.789062 -22.671875 22.03125 -25.828125 L 27.671875 -21.453125 C 24.367188 -16.617188 21.6875 -11.832031 19.625 -7.09375 L 19.40625 -7 C 21.644531 -7.59375 24.085938 -8.503906 26.734375 -9.734375 C 29.390625 -10.960938 31.082031 -11.785156 31.8125 -12.203125 L 32.921875 -6.890625 C 30.742188 -5.304688 27.328125 -3.359375 22.671875 -1.046875 C 20.773438 -0.0976562 19.054688 0.648438 17.515625 1.203125 Z M 12.890625 -3.9375 "/></g></g></g><g fill="#ff5055" fill-opacity="0.302"><g transform="translate(128.664285, 65.240993)"><g><path d="M 5.78125 -5.421875 C 14.375 -6.535156 21.84375 -8.796875 28.1875 -12.203125 L 29.34375 -6.890625 C 23.945312 -3.484375 17.953125 -1.007812 11.359375 0.53125 C 9.148438 1.019531 6.976562 1.316406 4.84375 1.421875 L -1.6875 -4.625 C -1.6875 -7.113281 -1.523438 -9.039062 -1.203125 -10.40625 C 0.160156 -16.195312 3.503906 -20.863281 8.828125 -24.40625 C 11.210938 -25.976562 13.632812 -27.148438 16.09375 -27.921875 L 24.515625 -21.671875 C 24.335938 -20.859375 23.84375 -19.578125 23.03125 -17.828125 C 21.695312 -14.878906 20.644531 -12.863281 19.875 -11.78125 L 13.25 -15.984375 C 15.144531 -18.367188 16.335938 -20.367188 16.828125 -21.984375 C 13.460938 -20.546875 10.726562 -18.234375 8.625 -15.046875 C 6.726562 -12.171875 5.78125 -8.960938 5.78125 -5.421875 Z M 5.78125 -5.421875 "/></g></g></g><g fill="#ff5055" fill-opacity="0.302"><g transform="translate(156.591982, 65.240993)"><g><path d="M 5.78125 -5.421875 C 14.375 -6.535156 21.84375 -8.796875 28.1875 -12.203125 L 29.34375 -6.890625 C 23.945312 -3.484375 17.953125 -1.007812 11.359375 0.53125 C 9.148438 1.019531 6.976562 1.316406 4.84375 1.421875 L -1.6875 -4.625 C -1.6875 -7.113281 -1.523438 -9.039062 -1.203125 -10.40625 C 0.160156 -16.195312 3.503906 -20.863281 8.828125 -24.40625 C 11.210938 -25.976562 13.632812 -27.148438 16.09375 -27.921875 L 24.515625 -21.671875 C 24.335938 -20.859375 23.84375 -19.578125 23.03125 -17.828125 C 21.695312 -14.878906 20.644531 -12.863281 19.875 -11.78125 L 13.25 -15.984375 C 15.144531 -18.367188 16.335938 -20.367188 16.828125 -21.984375 C 13.460938 -20.546875 10.726562 -18.234375 8.625 -15.046875 C 6.726562 -12.171875 5.78125 -8.960938 5.78125 -5.421875 Z M 5.78125 -5.421875 "/></g></g></g><g fill="#ff5055" fill-opacity="0.302"><g transform="translate(184.51968, 65.240993)"><g><path d="M 12.78125 -29.765625 C 11.976562 -30.609375 11.578125 -31.625 11.578125 -32.8125 C 11.578125 -34.007812 11.988281 -35.019531 12.8125 -35.84375 C 13.632812 -36.664062 14.640625 -37.078125 15.828125 -37.078125 C 17.023438 -37.078125 18.035156 -36.664062 18.859375 -35.84375 C 19.679688 -35.019531 20.09375 -34.007812 20.09375 -32.8125 C 20.09375 -31.625 19.679688 -30.617188 18.859375 -29.796875 C 18.035156 -28.972656 17.023438 -28.5625 15.828125 -28.5625 C 14.640625 -28.5625 13.625 -28.960938 12.78125 -29.765625 Z M 4.84375 -6.625 C 8.414062 -7.707031 12.707031 -9.566406 17.71875 -12.203125 L 18.828125 -6.890625 C 15.429688 -4.679688 11.328125 -2.523438 6.515625 -0.421875 C 4.910156 0.273438 3.332031 0.890625 1.78125 1.421875 L -4.265625 -4.15625 C -2.546875 -8.851562 0.539062 -14.707031 5 -21.71875 C 6.332031 -23.820312 7.628906 -25.664062 8.890625 -27.25 L 14.09375 -23.40625 C 11.53125 -19.894531 9.039062 -15.671875 6.625 -10.734375 C 5.925781 -9.253906 5.332031 -7.882812 4.84375 -6.625 Z M 4.84375 -6.625 "/></g></g></g><g fill="#ff5055" fill-opacity="0.302"><g transform="translate(201.981064, 65.240993)"><g><path d="M 14.3125 -3.3125 C 11.539062 -1.132812 8.347656 0.441406 4.734375 1.421875 L -1.78125 -4.625 C -1.78125 -7.394531 -1.359375 -10.113281 -0.515625 -12.78125 C 0.316406 -15.445312 1.554688 -17.847656 3.203125 -19.984375 C 4.859375 -22.117188 6.898438 -23.894531 9.328125 -25.3125 C 11.765625 -26.738281 14.582031 -27.59375 17.78125 -27.875 L 21.25 -22.5625 C 21.664062 -23.226562 22.5625 -24.382812 23.9375 -26.03125 L 29.078125 -21.609375 C 25.609375 -17.085938 22.734375 -12.25 20.453125 -7.09375 L 20.296875 -7 C 22.335938 -7.519531 24.722656 -8.421875 27.453125 -9.703125 C 30.191406 -10.984375 31.925781 -11.816406 32.65625 -12.203125 L 33.8125 -6.890625 C 31.75 -5.378906 28.316406 -3.429688 23.515625 -1.046875 C 21.617188 -0.0976562 19.898438 0.648438 18.359375 1.203125 Z M 5.578125 -6.15625 C 9.328125 -7.164062 12.742188 -9.65625 15.828125 -13.625 C 16.742188 -15.625 17.425781 -18.113281 17.875 -21.09375 C 14.269531 -20.738281 11.3125 -19.140625 9 -16.296875 C 6.71875 -13.492188 5.578125 -10.113281 5.578125 -6.15625 Z M 5.578125 -6.15625 "/></g></g></g><g fill="#ff5055" fill-opacity="0.502"><g transform="translate(59.334109, 62.916255)"><g><path d="M -3.46875 -3.9375 C -1.125 -9.132812 0.976562 -13.253906 2.84375 -16.296875 C 5.851562 -21.316406 8.988281 -25.753906 12.25 -29.609375 C 9.832031 -30.023438 7.660156 -30.234375 5.734375 -30.234375 L 8 -36.5 C 14.582031 -36.289062 20.3125 -35.429688 25.1875 -33.921875 C 27.007812 -33.359375 28.851562 -32.675781 30.71875 -31.875 L 34.8125 -22.671875 C 32.394531 -19.234375 29.300781 -16.257812 25.53125 -13.75 C 21.757812 -11.25 17.6875 -9.398438 13.3125 -8.203125 L 9.828125 -13.140625 C 7.097656 -8.554688 4.664062 -3.648438 2.53125 1.578125 Z M 10.625 -14.46875 C 18.019531 -17.019531 23.578125 -20.539062 27.296875 -25.03125 C 23.960938 -26.789062 19.492188 -28.226562 13.890625 -29.34375 L 18.40625 -25.609375 C 15.601562 -22.066406 13.007812 -18.351562 10.625 -14.46875 Z M 10.625 -14.46875 "/></g></g></g><g fill="#ff5055" fill-opacity="0.502"><g transform="translate(94.782829, 62.916255)"><g><path d="M 12.890625 -3.9375 C 10.679688 -1.832031 7.835938 -0.046875 4.359375 1.421875 L -2.625 -4.625 C -2.132812 -8.59375 -0.910156 -12.503906 1.046875 -16.359375 C 3.015625 -20.210938 5.539062 -24.226562 8.625 -28.40625 L 14.046875 -24.25 C 9.128906 -17.625 6.023438 -11.59375 4.734375 -6.15625 C 4.765625 -6.15625 5.085938 -6.25 5.703125 -6.4375 C 6.316406 -6.632812 7.113281 -7.015625 8.09375 -7.578125 C 10.582031 -8.972656 12.878906 -10.988281 14.984375 -13.625 C 17.441406 -18.601562 19.789062 -22.671875 22.03125 -25.828125 L 27.671875 -21.453125 C 24.367188 -16.617188 21.6875 -11.832031 19.625 -7.09375 L 19.40625 -7 C 21.644531 -7.59375 24.085938 -8.503906 26.734375 -9.734375 C 29.390625 -10.960938 31.082031 -11.785156 31.8125 -12.203125 L 32.921875 -6.890625 C 30.742188 -5.304688 27.328125 -3.359375 22.671875 -1.046875 C 20.773438 -0.0976562 19.054688 0.648438 17.515625 1.203125 Z M 12.890625 -3.9375 "/></g></g></g><g fill="#ff5055" fill-opacity="0.502"><g transform="translate(126.339547, 62.916255)"><g><path d="M 5.78125 -5.421875 C 14.375 -6.535156 21.84375 -8.796875 28.1875 -12.203125 L 29.34375 -6.890625 C 23.945312 -3.484375 17.953125 -1.007812 11.359375 0.53125 C 9.148438 1.019531 6.976562 1.316406 4.84375 1.421875 L -1.6875 -4.625 C -1.6875 -7.113281 -1.523438 -9.039062 -1.203125 -10.40625 C 0.160156 -16.195312 3.503906 -20.863281 8.828125 -24.40625 C 11.210938 -25.976562 13.632812 -27.148438 16.09375 -27.921875 L 24.515625 -21.671875 C 24.335938 -20.859375 23.84375 -19.578125 23.03125 -17.828125 C 21.695312 -14.878906 20.644531 -12.863281 19.875 -11.78125 L 13.25 -15.984375 C 15.144531 -18.367188 16.335938 -20.367188 16.828125 -21.984375 C 13.460938 -20.546875 10.726562 -18.234375 8.625 -15.046875 C 6.726562 -12.171875 5.78125 -8.960938 5.78125 -5.421875 Z M 5.78125 -5.421875 "/></g></g></g><g fill="#ff5055" fill-opacity="0.502"><g transform="translate(154.267244, 62.916255)"><g><path d="M 5.78125 -5.421875 C 14.375 -6.535156 21.84375 -8.796875 28.1875 -12.203125 L 29.34375 -6.890625 C 23.945312 -3.484375 17.953125 -1.007812 11.359375 0.53125 C 9.148438 1.019531 6.976562 1.316406 4.84375 1.421875 L -1.6875 -4.625 C -1.6875 -7.113281 -1.523438 -9.039062 -1.203125 -10.40625 C 0.160156 -16.195312 3.503906 -20.863281 8.828125 -24.40625 C 11.210938 -25.976562 13.632812 -27.148438 16.09375 -27.921875 L 24.515625 -21.671875 C 24.335938 -20.859375 23.84375 -19.578125 23.03125 -17.828125 C 21.695312 -14.878906 20.644531 -12.863281 19.875 -11.78125 L 13.25 -15.984375 C 15.144531 -18.367188 16.335938 -20.367188 16.828125 -21.984375 C 13.460938 -20.546875 10.726562 -18.234375 8.625 -15.046875 C 6.726562 -12.171875 5.78125 -8.960938 5.78125 -5.421875 Z M 5.78125 -5.421875 "/></g></g></g><g fill="#ff5055" fill-opacity="0.502"><g transform="translate(182.194942, 62.916255)"><g><path d="M 12.78125 -29.765625 C 11.976562 -30.609375 11.578125 -31.625 11.578125 -32.8125 C 11.578125 -34.007812 11.988281 -35.019531 12.8125 -35.84375 C 13.632812 -36.664062 14.640625 -37.078125 15.828125 -37.078125 C 17.023438 -37.078125 18.035156 -36.664062 18.859375 -35.84375 C 19.679688 -35.019531 20.09375 -34.007812 20.09375 -32.8125 C 20.09375 -31.625 19.679688 -30.617188 18.859375 -29.796875 C 18.035156 -28.972656 17.023438 -28.5625 15.828125 -28.5625 C 14.640625 -28.5625 13.625 -28.960938 12.78125 -29.765625 Z M 4.84375 -6.625 C 8.414062 -7.707031 12.707031 -9.566406 17.71875 -12.203125 L 18.828125 -6.890625 C 15.429688 -4.679688 11.328125 -2.523438 6.515625 -0.421875 C 4.910156 0.273438 3.332031 0.890625 1.78125 1.421875 L -4.265625 -4.15625 C -2.546875 -8.851562 0.539062 -14.707031 5 -21.71875 C 6.332031 -23.820312 7.628906 -25.664062 8.890625 -27.25 L 14.09375 -23.40625 C 11.53125 -19.894531 9.039062 -15.671875 6.625 -10.734375 C 5.925781 -9.253906 5.332031 -7.882812 4.84375 -6.625 Z M 4.84375 -6.625 "/></g></g></g><g fill="#ff5055" fill-opacity="0.502"><g transform="translate(199.656326, 62.916255)"><g><path d="M 14.3125 -3.3125 C 11.539062 -1.132812 8.347656 0.441406 4.734375 1.421875 L -1.78125 -4.625 C -1.78125 -7.394531 -1.359375 -10.113281 -0.515625 -12.78125 C 0.316406 -15.445312 1.554688 -17.847656 3.203125 -19.984375 C 4.859375 -22.117188 6.898438 -23.894531 9.328125 -25.3125 C 11.765625 -26.738281 14.582031 -27.59375 17.78125 -27.875 L 21.25 -22.5625 C 21.664062 -23.226562 22.5625 -24.382812 23.9375 -26.03125 L 29.078125 -21.609375 C 25.609375 -17.085938 22.734375 -12.25 20.453125 -7.09375 L 20.296875 -7 C 22.335938 -7.519531 24.722656 -8.421875 27.453125 -9.703125 C 30.191406 -10.984375 31.925781 -11.816406 32.65625 -12.203125 L 33.8125 -6.890625 C 31.75 -5.378906 28.316406 -3.429688 23.515625 -1.046875 C 21.617188 -0.0976562 19.898438 0.648438 18.359375 1.203125 Z M 5.578125 -6.15625 C 9.328125 -7.164062 12.742188 -9.65625 15.828125 -13.625 C 16.742188 -15.625 17.425781 -18.113281 17.875 -21.09375 C 14.269531 -20.738281 11.3125 -19.140625 9 -16.296875 C 6.71875 -13.492188 5.578125 -10.113281 5.578125 -6.15625 Z M 5.578125 -6.15625 "/></g></g></g><g fill="#ffd200" fill-opacity="1"><g transform="translate(57.009371, 60.591516)"><g><path d="M -3.46875 -3.9375 C -1.125 -9.132812 0.976562 -13.253906 2.84375 -16.296875 C 5.851562 -21.316406 8.988281 -25.753906 12.25 -29.609375 C 9.832031 -30.023438 7.660156 -30.234375 5.734375 -30.234375 L 8 -36.5 C 14.582031 -36.289062 20.3125 -35.429688 25.1875 -33.921875 C 27.007812 -33.359375 28.851562 -32.675781 30.71875 -31.875 L 34.8125 -22.671875 C 32.394531 -19.234375 29.300781 -16.257812 25.53125 -13.75 C 21.757812 -11.25 17.6875 -9.398438 13.3125 -8.203125 L 9.828125 -13.140625 C 7.097656 -8.554688 4.664062 -3.648438 2.53125 1.578125 Z M 10.625 -14.46875 C 18.019531 -17.019531 23.578125 -20.539062 27.296875 -25.03125 C 23.960938 -26.789062 19.492188 -28.226562 13.890625 -29.34375 L 18.40625 -25.609375 C 15.601562 -22.066406 13.007812 -18.351562 10.625 -14.46875 Z M 10.625 -14.46875 "/></g></g></g><g fill="#ffd200" fill-opacity="1"><g transform="translate(92.45809, 60.591516)"><g><path d="M 12.890625 -3.9375 C 10.679688 -1.832031 7.835938 -0.046875 4.359375 1.421875 L -2.625 -4.625 C -2.132812 -8.59375 -0.910156 -12.503906 1.046875 -16.359375 C 3.015625 -20.210938 5.539062 -24.226562 8.625 -28.40625 L 14.046875 -24.25 C 9.128906 -17.625 6.023438 -11.59375 4.734375 -6.15625 C 4.765625 -6.15625 5.085938 -6.25 5.703125 -6.4375 C 6.316406 -6.632812 7.113281 -7.015625 8.09375 -7.578125 C 10.582031 -8.972656 12.878906 -10.988281 14.984375 -13.625 C 17.441406 -18.601562 19.789062 -22.671875 22.03125 -25.828125 L 27.671875 -21.453125 C 24.367188 -16.617188 21.6875 -11.832031 19.625 -7.09375 L 19.40625 -7 C 21.644531 -7.59375 24.085938 -8.503906 26.734375 -9.734375 C 29.390625 -10.960938 31.082031 -11.785156 31.8125 -12.203125 L 32.921875 -6.890625 C 30.742188 -5.304688 27.328125 -3.359375 22.671875 -1.046875 C 20.773438 -0.0976562 19.054688 0.648438 17.515625 1.203125 Z M 12.890625 -3.9375 "/></g></g></g><g fill="#ffd200" fill-opacity="1"><g transform="translate(124.014808, 60.591516)"><g><path d="M 5.78125 -5.421875 C 14.375 -6.535156 21.84375 -8.796875 28.1875 -12.203125 L 29.34375 -6.890625 C 23.945312 -3.484375 17.953125 -1.007812 11.359375 0.53125 C 9.148438 1.019531 6.976562 1.316406 4.84375 1.421875 L -1.6875 -4.625 C -1.6875 -7.113281 -1.523438 -9.039062 -1.203125 -10.40625 C 0.160156 -16.195312 3.503906 -20.863281 8.828125 -24.40625 C 11.210938 -25.976562 13.632812 -27.148438 16.09375 -27.921875 L 24.515625 -21.671875 C 24.335938 -20.859375 23.84375 -19.578125 23.03125 -17.828125 C 21.695312 -14.878906 20.644531 -12.863281 19.875 -11.78125 L 13.25 -15.984375 C 15.144531 -18.367188 16.335938 -20.367188 16.828125 -21.984375 C 13.460938 -20.546875 10.726562 -18.234375 8.625 -15.046875 C 6.726562 -12.171875 5.78125 -8.960938 5.78125 -5.421875 Z M 5.78125 -5.421875 "/></g></g></g><g fill="#ffd200" fill-opacity="1"><g transform="translate(151.942506, 60.591516)"><g><path d="M 5.78125 -5.421875 C 14.375 -6.535156 21.84375 -8.796875 28.1875 -12.203125 L 29.34375 -6.890625 C 23.945312 -3.484375 17.953125 -1.007812 11.359375 0.53125 C 9.148438 1.019531 6.976562 1.316406 4.84375 1.421875 L -1.6875 -4.625 C -1.6875 -7.113281 -1.523438 -9.039062 -1.203125 -10.40625 C 0.160156 -16.195312 3.503906 -20.863281 8.828125 -24.40625 C 11.210938 -25.976562 13.632812 -27.148438 16.09375 -27.921875 L 24.515625 -21.671875 C 24.335938 -20.859375 23.84375 -19.578125 23.03125 -17.828125 C 21.695312 -14.878906 20.644531 -12.863281 19.875 -11.78125 L 13.25 -15.984375 C 15.144531 -18.367188 16.335938 -20.367188 16.828125 -21.984375 C 13.460938 -20.546875 10.726562 -18.234375 8.625 -15.046875 C 6.726562 -12.171875 5.78125 -8.960938 5.78125 -5.421875 Z M 5.78125 -5.421875 "/></g></g></g><g fill="#ffd200" fill-opacity="1"><g transform="translate(179.870203, 60.591516)"><g><path d="M 12.78125 -29.765625 C 11.976562 -30.609375 11.578125 -31.625 11.578125 -32.8125 C 11.578125 -34.007812 11.988281 -35.019531 12.8125 -35.84375 C 13.632812 -36.664062 14.640625 -37.078125 15.828125 -37.078125 C 17.023438 -37.078125 18.035156 -36.664062 18.859375 -35.84375 C 19.679688 -35.019531 20.09375 -34.007812 20.09375 -32.8125 C 20.09375 -31.625 19.679688 -30.617188 18.859375 -29.796875 C 18.035156 -28.972656 17.023438 -28.5625 15.828125 -28.5625 C 14.640625 -28.5625 13.625 -28.960938 12.78125 -29.765625 Z M 4.84375 -6.625 C 8.414062 -7.707031 12.707031 -9.566406 17.71875 -12.203125 L 18.828125 -6.890625 C 15.429688 -4.679688 11.328125 -2.523438 6.515625 -0.421875 C 4.910156 0.273438 3.332031 0.890625 1.78125 1.421875 L -4.265625 -4.15625 C -2.546875 -8.851562 0.539062 -14.707031 5 -21.71875 C 6.332031 -23.820312 7.628906 -25.664062 8.890625 -27.25 L 14.09375 -23.40625 C 11.53125 -19.894531 9.039062 -15.671875 6.625 -10.734375 C 5.925781 -9.253906 5.332031 -7.882812 4.84375 -6.625 Z M 4.84375 -6.625 "/></g></g></g><g fill="#ffd200" fill-opacity="1"><g transform="translate(197.331588, 60.591516)"><g><path d="M 14.3125 -3.3125 C 11.539062 -1.132812 8.347656 0.441406 4.734375 1.421875 L -1.78125 -4.625 C -1.78125 -7.394531 -1.359375 -10.113281 -0.515625 -12.78125 C 0.316406 -15.445312 1.554688 -17.847656 3.203125 -19.984375 C 4.859375 -22.117188 6.898438 -23.894531 9.328125 -25.3125 C 11.765625 -26.738281 14.582031 -27.59375 17.78125 -27.875 L 21.25 -22.5625 C 21.664062 -23.226562 22.5625 -24.382812 23.9375 -26.03125 L 29.078125 -21.609375 C 25.609375 -17.085938 22.734375 -12.25 20.453125 -7.09375 L 20.296875 -7 C 22.335938 -7.519531 24.722656 -8.421875 27.453125 -9.703125 C 30.191406 -10.984375 31.925781 -11.816406 32.65625 -12.203125 L 33.8125 -6.890625 C 31.75 -5.378906 28.316406 -3.429688 23.515625 -1.046875 C 21.617188 -0.0976562 19.898438 0.648438 18.359375 1.203125 Z M 5.578125 -6.15625 C 9.328125 -7.164062 12.742188 -9.65625 15.828125 -13.625 C 16.742188 -15.625 17.425781 -18.113281 17.875 -21.09375 C 14.269531 -20.738281 11.3125 -19.140625 9 -16.296875 C 6.71875 -13.492188 5.578125 -10.113281 5.578125 -6.15625 Z M 5.578125 -6.15625 "/></g></g></g><g fill="#000000" fill-opacity="1"><g transform="translate(108.316114, 76.267512)"><g><path d="M 9.265625 -3.0625 L 10.71875 -3.0625 L 10.71875 0 L 0.625 0 L 0.625 -1.296875 L 2.703125 -1.296875 L 2.703125 -5.6875 L 0.625 -5.6875 L 0.625 -6.984375 L 6.40625 -6.984375 L 6.40625 -5.6875 L 4.34375 -5.6875 L 4.34375 -1.296875 L 9.265625 -1.296875 Z M 9.265625 -3.0625 "/></g></g></g><g fill="#000000" fill-opacity="1"><g transform="translate(122.345048, 76.267512)"><g><path d="M 6.421875 -5.6875 L 4.359375 -5.6875 L 4.359375 -1.296875 L 6.421875 -1.296875 L 6.421875 0 L 0.625 0 L 0.625 -1.296875 L 2.703125 -1.296875 L 2.703125 -5.6875 L 0.625 -5.6875 L 0.625 -6.984375 L 6.421875 -6.984375 Z M 6.421875 -5.6875 "/></g></g></g><g fill="#000000" fill-opacity="1"><g transform="translate(132.084961, 76.267512)"><g><path d="M 14.75 -6.984375 L 14.75 -5.6875 L 12.6875 -5.6875 L 12.6875 0.0625 L 11.796875 0.078125 L 4.296875 -5.015625 L 4.296875 -1.296875 L 6.546875 -1.296875 L 6.546875 0 L 0.625 0 L 0.625 -1.296875 L 2.703125 -1.296875 L 2.703125 -5.6875 L 0.625 -5.6875 L 0.625 -6.984375 L 4.296875 -6.984375 L 11.171875 -2.328125 L 11.171875 -5.6875 L 9.109375 -5.6875 L 9.109375 -6.984375 Z M 14.75 -6.984375 "/></g></g></g><g fill="#000000" fill-opacity="1"><g transform="translate(149.536964, 76.267512)"><g><path d="M 13.53125 -6.984375 L 13.53125 -5.6875 L 11.484375 -5.6875 L 11.484375 -3.5625 C 11.484375 -2.9375 11.363281 -2.390625 11.125 -1.921875 C 10.894531 -1.460938 10.566406 -1.078125 10.140625 -0.765625 C 9.710938 -0.460938 9.210938 -0.234375 8.640625 -0.078125 C 8.078125 0.0664062 7.472656 0.140625 6.828125 0.140625 C 5.929688 0.140625 5.128906 0.0078125 4.421875 -0.25 C 3.722656 -0.519531 3.171875 -0.929688 2.765625 -1.484375 C 2.367188 -2.035156 2.171875 -2.726562 2.171875 -3.5625 L 2.171875 -5.6875 L 0.109375 -5.6875 L 0.109375 -6.984375 L 5.65625 -6.984375 L 5.65625 -5.6875 L 3.796875 -5.6875 L 3.8125 -3.546875 C 3.8125 -2.984375 3.941406 -2.523438 4.203125 -2.171875 C 4.460938 -1.828125 4.816406 -1.578125 5.265625 -1.421875 C 5.722656 -1.265625 6.242188 -1.1875 6.828125 -1.1875 C 7.398438 -1.1875 7.914062 -1.265625 8.375 -1.421875 C 8.832031 -1.585938 9.191406 -1.84375 9.453125 -2.1875 C 9.710938 -2.539062 9.84375 -3.003906 9.84375 -3.578125 L 9.875 -5.6875 L 8.03125 -5.6875 L 8.03125 -6.984375 Z M 13.53125 -6.984375 "/></g></g></g><g fill="#000000" fill-opacity="1"><g transform="translate(165.858136, 76.267512)"><g><path d="M 10.46875 -5.6875 L 7.5 -3.609375 L 10.8125 -1.296875 L 12.125 -1.296875 L 12.125 0 L 7.03125 0 L 7.03125 -1.25 L 8.4375 -1.25 L 6.078125 -2.890625 L 3.765625 -1.25 L 5.28125 -1.25 L 5.28125 0 L 0.453125 0 L 0.453125 -1.296875 L 1.921875 -1.296875 L 4.984375 -3.53125 L 1.859375 -5.6875 L 0.453125 -5.6875 L 0.453125 -6.984375 L 5.578125 -6.984375 L 5.578125 -5.75 L 4.28125 -5.75 L 6.421875 -4.265625 L 8.65625 -5.75 L 7.28125 -5.75 L 7.28125 -6.984375 L 12.125 -6.984375 L 12.125 -5.6875 Z M 10.46875 -5.6875 "/></g></g></g></svg>